<?xml version="1.0" encoding="utf-8" standalone="no"?>
<!-- Creator: Esri ArcMap 10.2.0.3348 -->
<!DOCTYPE svg PUBLIC "-//W3C//DTD SVG 1.1//EN"  "http://www.w3.org/Graphics/SVG/1.1/DTD/svg11.dtd">
<svg width="648.73701pt" height="556.49764pt" viewBox="0 0 648.73701 556.49764" enable-background="new 0 0 648.73701 556.49764"
	version="1.1" xmlns="http://www.w3.org/2000/svg" xmlns:xlink="http://www.w3.org/1999/xlink" >
	<g id="__">
		<g id="main">
			<clipPath id="SVG_CP_1">
				<path d="M0,556.48218L0,0L648.66031,0L648.66031,556.48218L0,556.48218z"/>
			</clipPath>
			<path clip-path="url(#SVG_CP_1)" fill="#EECDF7" fill-rule="evenodd" stroke="#6E6E6E" stroke-width="0.47996" stroke-miterlimit="10" stroke-linecap="round" stroke-linejoin="round" d="
				M-6.23943,252.68466L588.66583,252.68466L588.66583,260.84352L-6.23943,260.84352L-6.23943,252.68466z"/>
			<path clip-path="url(#SVG_CP_1)" fill="#EECDF7" fill-rule="evenodd" stroke="#6E6E6E" stroke-width="0.47996" stroke-miterlimit="10" stroke-linecap="round" stroke-linejoin="round" d="
				M589.38576,305.71725L588.66583,213.0902L596.82508,213.0902L596.82508,305.71725L589.38576,305.71725z"/>
			<path clip-path="url(#SVG_CP_1)" fill="#EECDF7" fill-rule="evenodd" stroke="#6E6E6E" stroke-width="0.47996" stroke-miterlimit="10" stroke-linecap="round" stroke-linejoin="round" d="
				M25.43766,252.68466L25.43766,150.93889L36.9566,150.93889L36.9566,252.68466L25.43766,252.68466z"/>
			<path clip-path="url(#SVG_CP_1)" fill="#EECDF7" fill-rule="evenodd" stroke="#6E6E6E" stroke-width="0.47996" stroke-miterlimit="10" stroke-linecap="round" stroke-linejoin="round" d="
				M72.95329,252.68466L72.95329,152.85862L85.67212,152.85862L85.67212,252.68466L72.95329,252.68466z"/>
			<path clip-path="url(#SVG_CP_1)" fill="#EECDF7" fill-rule="evenodd" stroke="#6E6E6E" stroke-width="0.47996" stroke-miterlimit="10" stroke-linecap="round" stroke-linejoin="round" d="
				M215.26019,252.68466L215.26019,154.53839L226.0592,154.53839L226.0592,252.68466L215.26019,252.68466z"/>
			<path clip-path="url(#SVG_CP_1)" fill="#EECDF7" fill-rule="evenodd" stroke="#6E6E6E" stroke-width="0.47996" stroke-miterlimit="10" stroke-linecap="round" stroke-linejoin="round" d="
				M426.68073,252.68466L426.68073,149.97903L437.47974,149.97903L437.47974,252.68466L426.68073,252.68466z"/>
			<path clip-path="url(#SVG_CP_1)" fill="#EECDF7" fill-rule="evenodd" stroke="#6E6E6E" stroke-width="0.47996" stroke-miterlimit="10" stroke-linecap="round" stroke-linejoin="round" d="
				M478.99592,252.68466L478.99592,151.89876L490.75484,151.89876L490.75484,252.68466L478.99592,252.68466z"/>
			<path clip-path="url(#SVG_CP_1)" fill="#EECDF7" fill-rule="evenodd" stroke="#6E6E6E" stroke-width="0.47996" stroke-miterlimit="10" stroke-linecap="round" stroke-linejoin="round" d="
				M183.82308,260.84352L197.26185,260.84352L197.26185,365.22892L183.82308,365.22892L183.82308,260.84352z"/>
			<path clip-path="url(#SVG_CP_1)" fill="#EECDF7" fill-rule="evenodd" stroke="#6E6E6E" stroke-width="0.47996" stroke-miterlimit="10" stroke-linecap="round" stroke-linejoin="round" d="
				M138.70724,260.84352L152.146,260.84352L152.146,363.30919L138.70724,363.30919L138.70724,260.84352z"/>
			<path clip-path="url(#SVG_CP_1)" fill="#EECDF7" fill-rule="evenodd" stroke="#6E6E6E" stroke-width="0.47996" stroke-miterlimit="10" stroke-linecap="round" stroke-linejoin="round" d="
				M255.81646,260.84352L269.25522,260.84352L269.25522,362.34933L255.81646,362.34933L255.81646,260.84352z"/>
			<path clip-path="url(#SVG_CP_1)" fill="#EECDF7" fill-rule="evenodd" stroke="#6E6E6E" stroke-width="0.47996" stroke-miterlimit="10" stroke-linecap="round" stroke-linejoin="round" d="
				M322.29034,260.84352L335.7291,260.84352L335.7291,362.34933L322.29034,362.34933L322.29034,260.84352z"/>
			<path clip-path="url(#SVG_CP_1)" fill="#EECDF7" fill-rule="evenodd" stroke="#6E6E6E" stroke-width="0.47996" stroke-miterlimit="10" stroke-linecap="round" stroke-linejoin="round" d="
				M370.04595,260.84352L384.44462,260.84352L384.44462,356.1102L370.04595,356.1102L370.04595,260.84352z"/>
			<path clip-path="url(#SVG_CP_1)" fill="#EECDF7" fill-rule="evenodd" stroke="#6E6E6E" stroke-width="0.47996" stroke-miterlimit="10" stroke-linecap="round" stroke-linejoin="round" d="
				M404.36279,260.84352L416.84164,260.84352L416.84164,358.74983L404.36279,358.74983L404.36279,260.84352z"/>
			<path clip-path="url(#SVG_CP_1)" fill="#EECDF7" fill-rule="evenodd" stroke="#6E6E6E" stroke-width="0.47996" stroke-miterlimit="10" stroke-linecap="round" stroke-linejoin="round" d="
				M460.99758,260.84352L476.35616,260.84352L476.35616,358.74983L460.99758,358.74983L460.99758,260.84352z"/>
			<path clip-path="url(#SVG_CP_1)" fill="#EECDF7" fill-rule="evenodd" stroke="#6E6E6E" stroke-width="0.47996" stroke-miterlimit="10" stroke-linecap="round" stroke-linejoin="round" d="
				M552.66914,260.84352L566.34788,260.84352L566.34788,360.66956L552.66914,360.66956L552.66914,260.84352z"/>
			<path clip-path="url(#SVG_CP_1)" fill="#EECDF7" fill-rule="evenodd" stroke="#6E6E6E" stroke-width="0.47996" stroke-miterlimit="10" stroke-linecap="round" stroke-linejoin="round" d="
				M530.35119,252.68466L530.35119,151.89876L543.78996,151.89876L543.78996,252.68466L530.35119,252.68466z"/>
			<path clip-path="url(#SVG_CP_1)" fill="#EECDF7" fill-rule="evenodd" stroke="#6E6E6E" stroke-width="0.47996" stroke-miterlimit="10" stroke-linecap="round" stroke-linejoin="round" d="
				M530.35119,172.53587L530.35119,180.69473L504.1936,180.69473L504.1936,172.53587L530.35119,172.53587z"/>
			<path clip-path="url(#SVG_CP_1)" fill="#EECDF7" fill-rule="evenodd" stroke="#6E6E6E" stroke-width="0.47996" stroke-miterlimit="10" stroke-linecap="round" stroke-linejoin="round" d="
				M286.05368,252.68466L286.05368,154.77835L296.85268,154.77835L296.85268,252.68466L286.05368,252.68466z"/>
		</g>
	</g>
</svg>
